<svg id="Layer_1" data-name="Layer 1" xmlns="http://www.w3.org/2000/svg" viewBox="0 0 405.32 250.79"><line x1="382.82" y1="0.92" x2="382.82" y2="250.79"/><rect x="360.32" y="0.92" width="45" height="249.86"/><path d="M698.62,397.3c-11.59-3.11-27.53-5.36-45.72-5.36-71.41,0-133.32,42.9-133.32,127.37,0,63.73,39.29,119.48,128.77,119.56h56.49l3.68-9.7.25-.66,2.13-5.6,12.27-32.35,74.89-197.39h-64.8l-6.56,18.51-9.18,25.91L684,532.33l-16.27,47.61-1.85,5.42c-2.94.2-5.88.3-8.75.3-44,0-69.9-27-69.9-70.43,0-49,31.88-70.79,68.74-70.79a117.94,117.94,0,0,1,26.68,3Z" transform="translate(-519.58 -391.94)"/><path d="M708.77,628.51l-.25.66.34-.16Z" transform="translate(-519.58 -391.94)"/><line x1="312.7" y1="0.92" x2="312.7" y2="250.79"/><rect x="290.2" y="0.92" width="45" height="249.86"/></svg>